HIERARCHY
ROOT Hips
{
 OFFSET 0.000000 0.000000 0.000000
 CHANNELS 6 Xposition Yposition Zposition Yrotation Xrotation Zrotation
 JOINT Chest
 {
  OFFSET 0.000000 9.585900 0.002600
  CHANNELS 3 Yrotation Xrotation Zrotation
  JOINT Chest2
  {
   OFFSET 0.000000 9.601200 -0.005300
   CHANNELS 3 Yrotation Xrotation Zrotation
   JOINT Chest3
   {
    OFFSET 0.000000 9.561800 0.000000
    CHANNELS 3 Yrotation Xrotation Zrotation
    JOINT Chest4
    {
     OFFSET 0.000000 9.552100 0.000000
     CHANNELS 3 Yrotation Xrotation Zrotation
     JOINT Neck
     {
      OFFSET 0.000000 14.453000 0.000000
      CHANNELS 3 Yrotation Xrotation Zrotation
      JOINT Head
      {
       OFFSET 0.000000 8.936500 -0.011300
       CHANNELS 3 Yrotation Xrotation Zrotation
       End Site
       {
        OFFSET 0.000000 17.073600 -0.006000
       }
      }
     }
     JOINT RightCollar
     {
      OFFSET -2.921100 9.558500 0.000000
      CHANNELS 3 Yrotation Xrotation Zrotation
      JOINT RightShoulder
      {
       OFFSET -13.519700 0.000000 0.000000
       CHANNELS 3 Yrotation Xrotation Zrotation
       JOINT RightElbow
       {
        OFFSET 0.000000 -29.696600 0.000000
        CHANNELS 3 Yrotation Xrotation Zrotation
        JOINT RightWrist
        {
         OFFSET 0.000000 -24.004700 0.000000
         CHANNELS 3 Yrotation Xrotation Zrotation
         End Site
         {
          OFFSET 0.000000 -17.728500 0.000000
         }
        }
       }
      }
     }
     JOINT LeftCollar
     {
      OFFSET 2.921100 9.558500 0.000000
      CHANNELS 3 Yrotation Xrotation Zrotation
      JOINT LeftShoulder
      {
       OFFSET 13.519700 0.000000 0.000000
       CHANNELS 3 Yrotation Xrotation Zrotation
       JOINT LeftElbow
       {
        OFFSET 0.000000 -29.696600 0.000000
        CHANNELS 3 Yrotation Xrotation Zrotation
        JOINT LeftWrist
        {
         OFFSET 0.000000 -24.004700 0.000000
         CHANNELS 3 Yrotation Xrotation Zrotation
         End Site
         {
          OFFSET 0.000000 -17.728500 0.000000
         }
        }
       }
      }
     }
    }
   }
  }
 }
 JOINT RightHip
 {
  OFFSET -7.771700 -0.012900 -0.001300
  CHANNELS 3 Yrotation Xrotation Zrotation
  JOINT RightKnee
  {
   OFFSET 0.000000 -40.869800 0.001200
   CHANNELS 3 Yrotation Xrotation Zrotation
   JOINT RightAnkle
   {
    OFFSET 0.000000 -39.717900 0.002100
    CHANNELS 3 Yrotation Xrotation Zrotation
    JOINT RightToe
    {
     OFFSET 0.000000 -4.965400 11.033500
     CHANNELS 3 Yrotation Xrotation Zrotation
     End Site
     {
      OFFSET 0.000000 -1.423100 5.872300
     }
    }
   }
  }
 }
 JOINT LeftHip
 {
  OFFSET 7.771700 -0.012900 -0.001300
  CHANNELS 3 Yrotation Xrotation Zrotation
  JOINT LeftKnee
  {
   OFFSET 0.000000 -40.869800 0.001200
   CHANNELS 3 Yrotation Xrotation Zrotation
   JOINT LeftAnkle
   {
    OFFSET 0.000000 -39.717900 0.002100
    CHANNELS 3 Yrotation Xrotation Zrotation
    JOINT LeftToe
    {
     OFFSET 0.000000 -4.965400 11.033500
     CHANNELS 3 Yrotation Xrotation Zrotation
     End Site
     {
      OFFSET 0.000000 -1.423100 5.872300
     }
    }
   }
  }
 }
}
MOTION
Frames: 15
Frame Time: 0.008333
0.000000 85.388000 0.000000 0.000000 -5.767877 0.000000 0.000000 11.653817 0.000000 0.000000 -5.885947 0.000000 0.000000 -0.000000 0.000000 0.000000 -0.000000 0.000000 0.000000 12.528835 0.000000 0.000000 0.711642 0.000000 0.000000 -0.000000 0.000000 0.000000 0.000000 -90.000000 0.000000 -2.309062 0.000000 0.000000 2.309062 0.000000 0.000000 -0.000000 0.000000 0.000000 -0.000000 90.000000 0.000000 -2.309062 0.000000 0.000000 2.309062 0.000000 0.000000 8.520406 0.000000 0.000000 1.905762 0.000000 -0.000000 -4.658285 0.000000 0.000000 -0.000000 0.000000 0.000000 8.520406 0.000000 0.000000 1.905762 0.000000 -0.000000 -4.658285 0.000000 0.000000 -0.000000 0.000000
-66.639095 62.964172 11.821057 165.482123 -48.303201 -2.690524 7.109840 22.466032 3.298334 1.030075 3.288992 0.141448 1.478391 5.283485 0.213297 5.773364 18.763065 1.512369 3.871414 13.311710 3.205338 6.042993 -11.111239 4.516931 10.404068 0.699156 6.649732 -16.814314 -48.164552 -25.385883 -87.153100 -18.853906 100.413401 -17.852733 -12.602599 12.434273 -6.956039 -1.559188 -0.289234 -9.499614 -14.827557 14.475600 -47.373525 -59.371937 21.539729 -5.500070 -5.054124 3.061572 -6.372723 -12.330662 9.306915 -27.408962 74.637715 -25.670312 1.358640 -13.080471 -2.192693 -0.492875 0.952140 -0.288074 -3.140216 -18.837164 1.076843 11.327912 63.539975 4.016971 -4.242628 -7.531102 -0.149128 -0.025562 -0.253905 -0.210155
-66.630728 62.962075 11.827444 165.450495 -48.319788 -2.684882 7.067791 22.468968 3.273641 1.021981 3.293310 0.141686 1.485804 5.290459 0.218897 5.769369 18.773940 1.525454 3.844558 13.422215 3.226012 5.984173 -10.906554 4.569020 10.366998 0.793025 6.662734 -16.853292 -47.958430 -25.348798 -86.834016 -18.920862 100.345002 -17.842708 -12.547828 12.375648 -6.977248 -1.534566 -0.294916 -9.483608 -14.864747 14.463322 -47.363389 -59.370213 21.546794 -5.496735 -5.067605 3.054833 -6.372965 -12.312161 9.297041 -27.314204 74.643841 -25.555312 1.392309 -13.080498 -2.189154 -0.522893 0.952847 -0.299432 -3.206408 -18.834498 1.051793 11.431062 63.543362 4.153431 -4.200933 -7.518241 -0.180885 -0.032369 -0.248801 -0.202517
-66.621026 62.953046 11.840819 165.520718 -48.284282 -2.765690 6.960127 22.422766 3.255044 0.974290 3.291361 0.132798 1.566663 5.304563 0.236130 5.734745 18.788542 1.538158 3.820339 13.535003 3.247196 5.930352 -10.697628 4.620916 10.331538 0.889573 6.676852 -16.893198 -47.752908 -25.314057 -86.483503 -18.985841 100.270331 -17.828497 -12.515472 12.290897 -6.988625 -1.517976 -0.306148 -9.484343 -14.897033 14.452306 -47.336712 -59.371555 21.545153 -5.496133 -5.083698 3.043960 -6.448136 -12.341128 9.297831 -27.213225 74.646040 -25.404459 1.379850 -13.059321 -2.229160 -0.492341 0.937269 -0.289445 -3.326341 -18.944460 1.048835 11.531393 63.609162 4.277624 -4.109004 -7.352083 -0.168853 -0.076329 -0.398341 -0.227040
-66.596465 62.950334 11.853142 165.435800 -48.306996 -2.808533 6.993422 22.422008 3.326914 0.957887 3.295741 0.131084 1.615356 5.311358 0.248038 5.700389 18.808404 1.550889 3.800384 13.651162 3.267679 5.885078 -10.482446 4.669857 10.304250 0.985963 6.693426 -16.935941 -47.543766 -25.282515 -86.098902 -19.049196 100.193295 -17.802970 -12.497257 12.203655 -6.961409 -1.522957 -0.327142 -9.526674 -14.912618 14.443018 -47.299159 -59.373554 21.538118 -5.493333 -5.099088 3.033406 -6.433511 -12.307779 9.360200 -27.083653 74.641839 -25.173861 1.333348 -13.036463 -2.317059 -0.410248 0.928074 -0.270111 -3.354759 -18.937369 1.137478 11.569504 63.641987 4.356450 -4.049680 -7.362495 -0.194028 -0.084052 -0.394568 -0.221258
-66.580160 62.944227 11.865765 165.444627 -48.306954 -2.868613 6.939596 22.410336 3.338677 0.958265 3.302619 0.133694 1.619248 5.318694 0.252603 5.711680 18.820392 1.562453 3.771368 13.777716 3.296366 5.849646 -10.259366 4.714607 10.267516 1.089667 6.720086 -16.980390 -47.330788 -25.252258 -85.682492 -19.112662 100.112520 -17.767203 -12.472393 12.140977 -6.994656 -1.491733 -0.324727 -9.525631 -14.964801 14.422289 -47.251721 -59.374705 21.527674 -5.487599 -5.115859 3.024589 -6.466790 -12.301306 9.390580 -27.005087 74.642520 -25.045876 1.343884 -13.023846 -2.365259 -0.405772 0.921119 -0.253912 -3.405532 -18.994603 1.155974 11.616132 63.699051 4.435831 -3.898593 -7.233577 -0.179543 -0.194740 -0.512402 -0.232734
-66.570123 62.946434 11.868375 165.369971 -48.382404 -2.810651 6.960411 22.480809 3.322901 0.925503 3.306116 0.127555 1.617760 5.327747 0.255004 5.763420 18.817660 1.568512 3.719473 13.922743 3.343092 5.824872 -10.026682 4.754159 10.199996 1.209012 6.765793 -17.017258 -47.112149 -25.225992 -85.242861 -19.177640 100.031643 -17.722269 -12.427993 12.116021 -7.057789 -1.445860 -0.305687 -9.485786 -15.020754 14.403151 -47.238829 -59.393766 21.514975 -5.486134 -5.103420 3.036379 -6.416644 -12.228761 9.368816 -26.976356 74.631530 -24.961570 1.254133 -12.992634 -2.416117 -0.301879 0.896540 -0.216952 -3.416937 -18.959692 1.084441 11.772512 63.752923 4.593540 -3.754599 -7.176005 -0.082360 -0.289458 -0.589761 -0.334485
-66.551767 62.943770 11.878163 165.310250 -48.418828 -2.819408 6.991852 22.506631 3.363330 0.892603 3.311063 0.122418 1.553808 5.352744 0.251972 5.775291 18.847899 1.592075 3.756072 14.034416 3.330888 5.809673 -9.785192 4.788525 10.225329 1.297553 6.750789 -17.036976 -46.879856 -25.207005 -84.791000 -19.247538 99.957414 -17.666247 -12.359261 12.126244 -7.008987 -1.461242 -0.339672 -9.532241 -15.065817 14.380012 -47.172519 -59.385719 21.519307 -5.475798 -5.130543 3.013190 -6.410854 -12.187401 9.390310 -26.862757 74.635407 -24.803624 1.267091 -12.984641 -2.451805 -0.292707 0.899321 -0.237305 -3.460374 -18.944960 1.106460 11.848877 63.779358 4.695955 -3.674909 -7.150395 -0.070620 -0.303098 -0.612673 -0.360152
-66.534076 62.941201 11.887581 165.250944 -48.458246 -2.821347 6.978700 22.533069 3.371626 0.931494 3.321363 0.133810 1.525932 5.371114 0.252413 5.757057 18.878668 1.610921 3.767397 14.160062 3.334846 5.799585 -9.538829 4.818928 10.213472 1.389576 6.751996 -17.033037 -46.622326 -25.199111 -84.340711 -19.326654 99.892528 -17.603039 -12.261984 12.166845 -6.997341 -1.464999 -0.359015 -9.580950 -15.111151 14.353603 -47.114947 -59.376510 21.536833 -5.467898 -5.156820 2.992930 -6.424995 -12.140488 9.394521 -26.687890 74.645903 -24.597508 1.303281 -12.976827 -2.491697 -0.309209 0.898620 -0.244282 -3.486305 -18.919693 1.125524 11.890241 63.796937 4.772607 -3.611341 -7.138144 -0.101003 -0.307611 -0.613311 -0.325929
-66.513144 62.939878 11.896968 165.185312 -48.508264 -2.835160 6.944516 22.573145 3.381000 1.004853 3.329576 0.151870 1.510982 5.385514 0.253094 5.771414 18.884393 1.617934 3.746064 14.316878 3.370521 5.792793 -9.289923 4.845665 10.157330 1.501315 6.784204 -16.999608 -46.333291 -25.204357 -83.902261 -19.417848 99.839759 -17.534675 -12.138675 12.224289 -7.031762 -1.433066 -0.352976 -9.562426 -15.166664 14.335239 -47.112618 -59.394545 21.541020 -5.464183 -5.169891 2.986350 -6.398283 -12.085900 9.440207 -26.667596 74.636871 -24.520082 1.282550 -12.969824 -2.532191 -0.268881 0.897611 -0.227719 -3.509370 -18.881795 1.165382 11.926866 63.817516 4.848753 -3.563727 -7.131372 -0.133398 -0.303636 -0.615747 -0.303350
-66.497484 62.938498 11.904777 165.128372 -48.559575 -2.821048 6.919792 22.621778 3.371265 1.018497 3.338967 0.155215 1.517145 5.404788 0.262431 5.758659 18.921657 1.641872 3.756806 14.440390 3.369853 5.789881 -9.041095 4.868240 10.137584 1.582257 6.775164 -16.932388 -46.019017 -25.221114 -83.478616 -19.523176 99.801938 -17.455046 -11.997832 12.276082 -7.028937 -1.438193 -0.376860 -9.614989 -15.215070 14.309565 -47.073855 -59.390481 21.580812 -5.463092 -5.153360 3.000302 -6.394684 -12.032881 9.446330 -26.584776 74.642800 -24.426609 1.318286 -12.966075 -2.533948 -0.302575 0.893845 -0.219966 -3.501497 -18.843527 1.169699 11.948919 63.832515 4.899475 -3.519781 -7.102729 -0.064791 -0.310649 -0.633427 -0.352689
-66.482651 62.936360 11.913236 165.069811 -48.605116 -2.801025 6.908538 22.666125 3.366468 1.025615 3.348252 0.160627 1.502166 5.432486 0.267067 5.761260 18.954932 1.665140 3.767259 14.561223 3.366807 5.789912 -8.795145 4.886682 10.111630 1.667704 6.760298 -16.834697 -45.690948 -25.241964 -83.068835 -19.645137 99.778313 -17.361102 -11.846563 12.311256 -7.029527 -1.443071 -0.407360 -9.672502 -15.261515 14.291675 -47.020901 -59.372617 21.632358 -5.462421 -5.158953 2.995737 -6.389234 -11.987677 9.445654 -26.504842 74.649069 -24.334595 1.360073 -12.961992 -2.533562 -0.326791 0.897226 -0.257498 -3.490646 -18.802580 1.187734 11.974890 63.838899 4.933914 -3.496112 -7.093214 -0.070654 -0.333757 -0.628226 -0.317178
-66.464007 62.933475 11.923973 164.993365 -48.643844 -2.792825 6.917496 22.699987 3.387236 1.025235 3.362439 0.161117 1.536757 5.433668 0.275245 5.740669 18.997776 1.690920 3.769524 14.692115 3.373908 5.792470 -8.552291 4.901669 10.067192 1.773679 6.750190 -16.720172 -45.353755 -25.256770 -82.666234 -19.788986 99.764210 -17.259470 -11.690368 12.334937 -7.047371 -1.431496 -0.434703 -9.705537 -15.314285 14.285636 -46.980106 -59.364675 21.672381 -5.475361 -5.247892 2.930854 -6.384315 -11.948481 9.466761 -26.424327 74.652604 -24.222132 1.367277 -12.946609 -2.528883 -0.313067 0.889781 -0.291209 -3.498767 -18.777125 1.207884 12.029936 63.854178 5.028384 -3.452725 -7.078893 -0.069593 -0.345792 -0.633913 -0.324988
-66.447960 62.928764 11.935871 164.945831 -48.667061 -2.793373 6.933152 22.718931 3.410249 0.938880 3.387636 0.151579 1.628392 5.423613 0.285907 5.718183 19.042585 1.714580 3.773864 14.820702 3.380187 5.799268 -8.313785 4.914297 10.019438 1.888484 6.735727 -16.597982 -45.008646 -25.264124 -82.261878 -19.960201 99.755145 -17.154128 -11.534845 12.354150 -7.068450 -1.415759 -0.462778 -9.737537 -15.368842 14.284988 -47.000209 -59.406930 21.720191 -5.475820 -5.207443 2.959653 -6.397515 -11.925331 9.476319 -26.354906 74.656905 -24.121620 1.384321 -12.935281 -2.561308 -0.319096 0.882286 -0.258711 -3.546762 -18.774552 1.211433 12.150649 63.870583 5.174996 -3.415388 -7.054175 -0.076820 -0.345351 -0.652690 -0.345875
-66.430998 62.924766 11.947793 164.896589 -48.695142 -2.798687 6.951015 22.742648 3.437145 0.910824 3.400733 0.149403 1.631656 5.443006 0.290639 5.724674 19.071579 1.734686 3.781695 14.945606 3.386041 5.812766 -8.082187 4.924546 9.974879 2.011586 6.720429 -16.475589 -44.657306 -25.261894 -81.853193 -20.158633 99.753442 -17.042506 -11.382535 12.370111 -7.086968 -1.393560 -0.487548 -9.767794 -15.426881 14.287001 -46.997623 -59.433465 21.771174 -5.484337 -5.208445 2.958169 -6.434427 -11.890877 9.478984 -26.214497 74.665199 -23.965539 1.443405 -12.922868 -2.591550 -0.350967 0.878918 -0.272653 -3.550155 -18.762157 1.208552 12.165779 63.880823 5.268384 -3.378529 -7.034974 -0.057686 -0.315465 -0.672320 -0.422745
